<svg width="380" height="320" xmlns="http://www.w3.org/2000/svg"><defs><linearGradient x1="50%" y1="-1.072%" x2="50%" y2="84.04%" id="a"><stop stop-color="#2575DB" offset="0%"/><stop stop-color="#582994" offset="100%"/></linearGradient><linearGradient x1="34.516%" y1="10.908%" x2="83.734%" y2="117.698%" id="b"><stop stop-color="#2575DB" offset="0%"/><stop stop-color="#582994" offset="77%"/></linearGradient><linearGradient x1="-.025%" y1="49.986%" x2="100.019%" y2="49.986%" id="c"><stop stop-color="#8DDEF7" offset="3%"/><stop stop-color="#CAE3F0" offset="100%"/></linearGradient><linearGradient x1=".006%" y1="50.005%" x2="99.994%" y2="50.005%" id="d"><stop stop-color="#419AE0" offset="20%"/><stop stop-color="#2674DB" offset="100%"/></linearGradient></defs><g fill="none" fill-rule="evenodd"><path d="M279 140c.036 64.111-43.781 119.93-106.067 135.12C110.648 290.31 46.053 260.93 16.57 204c-.39-.76-.77-1.52-1.15-2.28-21.22-42.91-18.897-93.715 6.15-134.51a136.35 136.35 0 0 1 8.73-12.59A139.93 139.93 0 0 1 46.61 37C86.318.98 143.2-8.992 192.794 11.37c49.593 20.362 83.056 67.43 85.996 120.96.14 2.56.21 5.117.21 7.67z" fill="url(#a)" transform="translate(50 20)"/><path d="M258.07 66.63L211 190l-140 2L21.57 67.21a136.35 136.35 0 0 1 8.73-12.59A139.93 139.93 0 0 1 46.61 37a139 139 0 0 1 211.46 29.63z" fill="url(#b)" fill-rule="nonzero" transform="translate(50 20)"/><path d="M192.5 86.67c.64-3.72.18-7.76.1-11.53-.08-4.1-.17-20.72-.57-24.81a1.35 1.35 0 0 0-2.69 0c-.37 3.88-.37 20.29-.4 24.18-.03 3.89-.53 7.89-.07 11.67.23 1.82 3.25 2.75 3.63.49zM215.65 98.86c3.35-1.59 6.35-4.86 9.21-7.17 3.12-2.58 12.24-11.17 15.17-14a1.35 1.35 0 0 0-1.67-2.11c-3.39 2.21-12.58 10.73-15.78 13.21-3 2.28-6.67 4.44-9.15 7.23-1.24 1.43.57 3.6 2.22 2.84zM155.63 92c3 2.21 6.09 5.2 9.46 6.83 1.69.82 3.27-1.56 2.09-2.9-2.44-2.78-6.38-4.81-9.4-6.9-3.34-2.3-6.69-4.6-10.18-6.64a1.35 1.35 0 0 0-1.6 2.16c3.08 2.66 6.37 5.03 9.63 7.45z" fill="#FCB32C" fill-rule="nonzero"/><path d="M205.79 204.34H73.87a13 13 0 0 1-13-13v-20.15l12-61.5c1.67-7.5 5-13 13-13H193.8c7.2 0 10.7 3.37 12 11.21l13.34 64-.34 19.44a13 13 0 0 1-13.01 13z" fill="url(#c)" fill-rule="nonzero" transform="translate(50 20)"/><path d="M207.75 178.77s-35.75.57-40.92.57c0 7.5-2 10.24-8.87 10.24h-35.53c-4.26 0-9.26-2.74-9.26-10.81h-41.4a9 9 0 0 1-9-9l12.45-62.49c1-5 4-9 9-9l111.08-.15c5 0 8.15 4 9 9l12.44 62.64a9 9 0 0 1-8.99 9z" fill="url(#d)" fill-rule="nonzero" transform="translate(50 20)"/><path d="M122.15 192.66l7.47-40.66c.29-1.59.55-3.2.88-4.78.69-3.38 2.33-5.81 5.91-6.2a74.71 74.71 0 0 1 7.92-.07h66.5c6 0 12.11.08 18.15-.25 4.2-.22 8.43-.34 12.64-.26 4.56.09 6.86 3 7.71 7.34 2.78 14 5.08 28.14 7.62 42.2l.24 1.31c.11.64 1.07.37 1-.26l-7.49-41.49c-.47-2.61-.89-5.2-2.59-7.37-2.88-3.69-8.3-2.75-12.41-2.7-6.87.09-13.72.48-20.59.48h-73.68c-2.25 0-4.7-.24-6.89.41-3.33 1-4.53 4-5.12 7.2-2.72 14.46-5.32 28.94-8 43.41l-.26 1.38c-.11.63.85.9 1 .27l-.01.04z" fill="#1F65A6" fill-rule="nonzero"/></g></svg>